PathFileType	4	(X/Y/Z)	path1_09_0-604.trc
DataRate	CameraRate	NumFrames	NumMarkers	Units	OrigDataRate	OrigDataStartFrame	OrigNumFrames
30	30	6	22	m	30	226	604
Frame#	Time	Hip			RHip			RKnee			RAnkle			RBigToe			RSmallToe			RHeel			LHip			LKnee			LAnkle			LBigToe			LSmallToe			LHeel			Neck			Head			Nose			RShoulder			RElbow			RWrist			LShoulder			LElbow			LWrist		
		X1	Y1	Z1	X2	Y2	Z2	X3	Y3	Z3	X4	Y4	Z4	X5	Y5	Z5	X6	Y6	Z6	X7	Y7	Z7	X8	Y8	Z8	X9	Y9	Z9	X10	Y10	Z10	X11	Y11	Z11	X12	Y12	Z12	X13	Y13	Z13	X14	Y14	Z14	X15	Y15	Z15	X16	Y16	Z16	X17	Y17	Z17	X18	Y18	Z18	X19	Y19	Z19	X20	Y20	Z20	X21	Y21	Z21	X22	Y22	Z22
227	7.566666666666666	2.4002190099415768	0.8404883650950484	0.7328811252984562	2.4081756998391106	0.8026507720068156	0.6558597256506417	2.3952858674110358	0.468813311379014	0.6449913599540779	2.4531741164333374	0.10835224597602132	0.6557310665824844	2.271901595320917	0.02817020071049088	0.6374436439484611	2.314475371186583	0.0239965016586095	0.5794005727929189	2.5028748026087997	0.03510556292666106	0.6736103006306936	2.402043820785247	0.8002711908076926	0.816597148128057	2.4242708220517786	0.4359636765246093	0.833731626391194	2.4647069583801957	0.10399637817458125	0.8210251206419906	2.3009663253316655	0.013396498005507318	0.8191336948481747	2.3374586640377784	0.02347796843258451	0.8721215211585376	2.5050133235266747	0.03430741410671823	0.8089249086119397	2.3625462466231544	1.4703281544769538	0.7454685920959133	2.3314169012323473	1.7116399263447983	0.6969480389019771	2.204653999568616	1.5886411722598532	0.7460151699564677	2.414175405837681	1.3730646779452165	0.5763992502657501	2.4635985497787263	1.0889510077675126	0.5617566445060055	2.4575677502753037	0.8557169566312126	0.5477451312124303	2.400346972763485	1.35602249220255	0.9005075659003909	2.4360698670054823	1.073046362817385	0.943543085040524	2.452802459626699	0.8425073452473163	0.9332363875805093
228	7.6	2.3998723152848145	0.8405427055480112	0.7331209380535062	2.407806583844713	0.8022255808634258	0.6558841364663675	2.395291048749496	0.46857988290707125	0.6450439564058126	2.452197607473917	0.10940966189750628	0.6543862685856731	2.272372859930205	0.0279148607936863	0.637186012037137	2.3144986140321784	0.02394047481216412	0.5791562416410654	2.5038185752221995	0.034514725987467604	0.6738906859651246	2.401932242159474	0.7996051846824497	0.8165908807123993	2.424099657077133	0.4355716512991305	0.8340495470849012	2.4618933083228516	0.10553650815711364	0.8177477100442678	2.3010457108275744	0.013948768674443198	0.8191400453894132	2.337194595187868	0.023463226522952144	0.8719910611497468	2.5032903195595932	0.034858085537630215	0.8079435432880594	2.3624001743278344	1.4705593114260815	0.7456299740911432	2.3319199579724676	1.711077247630833	0.6973993465365849	2.2032493634825165	1.5885326164769435	0.7461423205869244	2.413774425308148	1.3727061439644146	0.5760407797360104	2.4637316148644284	1.0890618072904004	0.5617199195867091	2.45730599600728	0.8561959366450348	0.5446848059696304	2.4005446188525843	1.3558349366505305	0.9001329188142821	2.436262318361812	1.0730313014314297	0.9436561701506194	2.4528477559810735	0.8426143136350036	0.9329249377448359
229	7.633333333333334	2.399485062502104	0.8405803711821543	0.7333561032010141	2.4073526333402615	0.801882501167123	0.6559221836659155	2.3952215810589856	0.46844820272423476	0.6452139792738442	2.4515589224994123	0.11037772127050355	0.6534769043393454	2.272978268565689	0.027644545219421	0.6370310456564907	2.314589273944014	0.023918744250784635	0.5789655717947698	2.5052010987027766	0.03376683239838862	0.6743845919996206	2.4017353279129154	0.7989805403141494	0.8166418089266808	2.4240529772373565	0.4352051031173292	0.8345023339030165	2.459365324600972	0.10696763524062115	0.8146115690691877	2.300844545608549	0.014405464722371215	0.8190008362553527	2.3369050034042553	0.023368826286548287	0.8718998376387814	2.501967920334502	0.035292076113960465	0.8071582663144421	2.3623307670589297	1.470774693033868	0.7458332130472424	2.332227897204609	1.7105427528075143	0.6974015960665806	2.2009730638574907	1.587557347941525	0.7461890718493971	2.413346094029421	1.3723520670140457	0.5757751781591076	2.4637432381536097	1.0891149213885458	0.561574998488656	2.4569487148434317	0.8567916026897398	0.5421283161168955	2.4005679564932487	1.3556731698115294	0.8996313456432048	2.436498561114231	1.0731877472484717	0.9438850639851292	2.452866274964815	0.8428214106560666	0.9327162788283028
230	7.666666666666667	2.399133373825856	0.8406026494052377	0.7335032263165129	2.406860191454159	0.801615860635818	0.6559603310998356	2.3950768159148743	0.46844352343505863	0.6454670483009994	2.4512644138336177	0.11110028636837589	0.6530902433726276	2.273658137700195	0.027395190053708735	0.636957765355975	2.314748218431533	0.02391440284041419	0.578825830276753	2.5070128295173033	0.032825672041675615	0.6751613086520808	2.401514656099478	0.798398800466606	0.8166539831957581	2.4241624818527656	0.4348478603657753	0.8349735798122881	2.4576864251975663	0.10786768533344898	0.812359309519938	2.3007117009816023	0.014594469135631824	0.8188670525144419	2.336645029004773	0.023171880202180806	0.8718257938674563	2.5010919443268533	0.035497392774026706	0.8066197630506998	2.362253976974318	1.470969922405589	0.7460340528390208	2.3323935715015773	1.710087054678222	0.6972146987670728	2.1989964313428825	1.5865597981557786	0.7460506489999827	2.4129599926116976	1.37203187733632	0.5756330269427841	2.4636258587218482	1.0890999847819427	0.561321470088926	2.4565761357776648	0.857481818466756	0.5412290806511286	2.4004113762254558	1.3555376523546157	0.899105453912956	2.436743419671459	1.0734639803558923	0.9442012195459109	2.4527279024553903	0.843009323878062	0.9326889622328278
231	7.7	2.398876041307258	0.8406049908956019	0.7335671690048841	2.4064591245832503	0.8014348728060315	0.656027988563777	2.3948681199797797	0.46858051273534734	0.6457549991479752	2.4511524942604375	0.11155841691286388	0.6531047275880367	2.2742659133714613	0.02720085340885906	0.636958669586869	2.3149581950708327	0.023889808786941073	0.5787320293735783	2.509030471485593	0.03177807128960315	0.6761325382641209	2.4013578917422738	0.797909031303384	0.8166193067295033	2.4244326970054604	0.4345185708292771	0.835398428231537	2.4572615084366203	0.10793922412443496	0.8114836552758738	2.3008858673316843	0.014646594365014948	0.8188592737131499	2.3364533361139075	0.022921106297436315	0.8717913925216595	2.500700670393698	0.035447326748464084	0.8063004756319803	2.362117210734714	1.4711328681457996	0.7461684082608995	2.332468406275752	1.7097561092961588	0.6970708194072721	2.198686091693551	1.5866001917658268	0.7456002778388036	2.4126604077422633	1.3717649850273854	0.5756203366973447	2.463424595654703	1.0890617327861054	0.5610141887440625	2.456239976355923	0.8582602389266721	0.5424422629288321	2.4001461166253835	1.3554259983013393	0.8986967007350887	2.4369905670281153	1.07377744944225	0.9445464754387625	2.452460919011964	0.8431261947802823	0.932819439511581
232	7.733333333333333	2.3987029873200574	0.840566460699748	0.7336241964122405	2.4062263043757612	0.8013378033452462	0.656147929173039	2.3945957571119956	0.46882363580863057	0.6460404182784021	2.451038609353932	0.11184267559069416	0.6532893425061663	2.2746163574246245	0.027076634718086037	0.6370594817286772	2.3151599853547316	0.023829550182500978	0.5786868972105675	2.510855215477955	0.03086432939621778	0.6771106867806237	2.4013032551355695	0.7975568870040675	0.8165762607836802	2.424798575410691	0.43422421956470775	0.8357488292167488	2.4580101298994825	0.10726814117206922	0.8118602364563435	2.3012769667016646	0.014792524768000154	0.8189834711577153	2.336331000562408	0.022725049856994986	0.8718594980450356	2.500777995826145	0.03524896304856355	0.8061159140975517	2.3619179598160933	1.4712398930022967	0.746190525060682	2.3324799414102233	1.7095523790729394	0.6971000514587407	2.2008634423889863	1.5883054826690237	0.7448153495721169	2.4124583062846967	1.3715425689160143	0.5757760426470363	2.4632041146924797	1.0890583285203965	0.5607454241477119	2.4559858369843055	0.8590665217741964	0.5453187849786703	2.3998769664425805	1.3553323183779629	0.8985605207454825	2.4372546583916463	1.0740173750821844	0.9448616855967482	2.4522464038646214	0.8431856826576292	0.9330439636987402
